<?xml version="1.0" encoding="UTF-8"?>
<svg xmlns="http://www.w3.org/2000/svg" version="1.1" viewBox="0 0 128 128">
  <defs>
    <style>
      .cls-1 {
        fill: #fff;
      }
    </style>
  </defs>
  <!-- Generator: Adobe Illustrator 28.7.1, SVG Export Plug-In . SVG Version: 1.2.0 Build 142)  -->
  <g>
    <g id="Layer_1">
      <path class="cls-1" d="M97.4,51.7c13.1-2.8,22.9-15.5,22.9-26.6C120.3,3.3,107.8.1,107.8.1c0,22.4-6,26.8-6.3,27.1V9.5c-15.6,3.1-15.6,30.2-15.6,36.5s-1.7,4.2-3.9,4.6c-1.8-13.8-6.4-22.5-10.6-27.6,1.8-2,3.9-5.4,4.7-11,2.1-1,3.5-3.1,3.5-5.6S76.8.1,73.4.1s-6.3,2.8-6.3,6.3,1.1,4.1,2.8,5.2c-.6,3.6-1.8,5.7-2.8,6.9-1.8-1.6-3.1-2.2-3.1-2.2,0,0-1.2.6-3.1,2.2-1-1.2-2.2-3.3-2.8-6.9,1.7-1.1,2.8-3,2.8-5.2,0-3.5-2.8-6.3-6.3-6.3s-6.3,2.8-6.3,6.3,1.4,4.6,3.5,5.6c.8,5.6,2.9,9,4.7,11-4.1,5.2-8.7,13.8-10.6,27.6-2.2-.4-3.9-2.3-3.9-4.6,0-6.3,0-33.4-15.6-36.5v17.7c-.2-.3-6.3-4.7-6.3-27.1,0,0-12.5,3.1-12.5,25s9.8,23.8,22.9,26.6c2.2,6.2,7.9,10.8,14.7,11.4,0,0,0,0,0,0v4.7h-6.6c-4.3,0-7.8-3.5-7.8-7.8h-6.3c0,7.8,6.3,14.1,14.1,14.1h6.6v4.7h-6.6c-7.8,0-14.1,6.3-14.1,14.1h6.3c0-4.3,3.5-7.8,7.8-7.8h6.6c0,2.5,1,4.8,2.6,6.5-1.6,1.7-2.6,4-2.6,6.5s1.7,6.1,4.2,7.8l-7.3,14.6s6,7.3,21.9,7.3,21.9-7.3,21.9-7.3l-7.3-14.6c2.5-1.7,4.2-4.6,4.2-7.8s-1-4.8-2.6-6.5c1.6-1.7,2.6-4,2.6-6.5h6.6c4.3,0,7.8,3.5,7.8,7.8h6.3c0-7.8-6.3-14.1-14.1-14.1h-6.6v-4.7h6.6c7.8,0,14.1-6.3,14.1-14.1h-6.3c0,4.3-3.5,7.8-7.8,7.8h-6.6v-4.7s0,0,0,0c6.8-.6,12.5-5.2,14.7-11.4Z"/>
    </g>
  </g>
</svg>